<svg xmlns="http://www.w3.org/2000/svg" fill-rule="evenodd" viewBox="0 0 100 100">
    <path d="M38.1 10.048a1.5 1.5 0 0 0-1.317.784l-7.825 14.395H17.482a1.5 1.5 0 0 0-1.5 1.5v41.379a1.5 1.5 0 0 0 1.5 1.5H44.58L32.621 85.552a1.5 1.5 0 0 0 2.4 1.8l13.31-17.746h.444l13.309 17.746a1.5 1.5 0 1 0 2.4-1.8l-11.96-15.946h27.994a1.5 1.5 0 0 0 1.5-1.5v-41.38a1.5 1.5 0 0 0-1.5-1.5H69.15l-7.965-14.404a1.5 1.5 0 0 0-1.313-.774H38.1Zm-6.932 17.395 7.825-14.395h19.995l7.966 14.405a1.5 1.5 0 0 0 1.313.774h10.75v38.379H18.983v-38.38H29.85a1.5 1.5 0 0 0 1.318-.783Zm8.33 15.632a9.491 9.491 0 0 1 9.499-9.505c5.236 0 9.49 4.247 9.49 9.505 0 5.245-4.255 9.502-9.49 9.502-5.255 0-9.5-4.257-9.5-9.502Zm9.5-12.505c-6.915 0-12.5 5.591-12.5 12.505 0 6.899 5.584 12.502 12.5 12.502 6.894 0 12.49-5.603 12.49-12.502 0-6.914-5.597-12.504-12.49-12.505Z"/>
</svg>
