<svg xmlns="http://www.w3.org/2000/svg" fill-rule="evenodd" viewBox="0 0 100 100">
    <path d="M4.335 2.797a1.5 1.5 0 0 1 1.5-1.5h75.282a1.5 1.5 0 0 1 1.5 1.5v49.666a1.5 1.5 0 0 1-3 0V4.297H7.335v40.032l15.71-25.324a1.5 1.5 0 0 1 2.587.064l13.246 23.91 9.237-16.102a1.5 1.5 0 0 1 2.593-.015l17.788 30.197a1.492 1.492 0 0 1 .088 1.417 1.493 1.493 0 0 1-1.406.873H7.335v17.239h42.212a1.5 1.5 0 1 1 0 3H5.835a1.5 1.5 0 0 1-1.5-1.5V2.797Zm60.261 53.552L49.433 30.608l-8.856 15.439 5.708 10.302h18.311Zm-57.261 0V50.02l16.912-27.26 18.608 33.589H7.335ZM85.97 72.663a1.5 1.5 0 0 1 .28 2.102L76.065 88.08a1.5 1.5 0 0 1-2.354.036l-6.973-8.567a1.5 1.5 0 1 1 2.326-1.894l5.773 7.093 9.03-11.805a1.5 1.5 0 0 1 2.103-.28Zm-17.414-56.38a3.753 3.753 0 0 0-3.764-3.753 3.753 3.753 0 0 0-3.757 3.753 3.762 3.762 0 1 0 7.52 0ZM64.792 9.53a6.753 6.753 0 0 1 6.764 6.753c0 3.74-3.023 6.77-6.764 6.77-3.736 0-6.757-3.032-6.757-6.77a6.753 6.753 0 0 1 6.757-6.753Zm-4.094 69.365c0-8.373 6.788-15.161 15.161-15.161s15.161 6.788 15.161 15.16c0 8.374-6.788 15.162-15.161 15.162s-15.161-6.788-15.161-15.161Zm15.161-18.161c-10.03 0-18.161 8.13-18.161 18.16s8.131 18.162 18.161 18.162c10.03 0 18.161-8.131 18.161-18.161 0-10.03-8.131-18.161-18.161-18.161Z"/>
</svg>
